<?xml version="1.0" encoding="UTF-8"?>
<svg version="1.1" xmlns="http://www.w3.org/2000/svg" width="52" height="166">
<path d="M0 0 C1.93166016 0.01740234 1.93166016 0.01740234 3.90234375 0.03515625 C5.19269531 0.04417969 6.48304687 0.05320313 7.8125 0.0625 C8.81152344 0.07410156 9.81054688 0.08570313 10.83984375 0.09765625 C14.71779355 7.42039694 17.82858536 14.87485234 20.65234375 22.66015625 C21.05904297 23.73201172 21.46574219 24.80386719 21.88476562 25.90820312 C26.87685132 39.6259512 26.87685132 39.6259512 23.81567383 46.34594727 C23.4936499 46.92401123 23.17162598 47.5020752 22.83984375 48.09765625 C21.01171875 48.0390625 21.01171875 48.0390625 18.83984375 47.09765625 C17.71354746 44.69983074 16.86883708 42.54116311 16.08984375 40.03515625 C15.86941406 39.37193359 15.64898437 38.70871094 15.421875 38.02539062 C14.87986968 36.38759193 14.35791873 34.74318129 13.83984375 33.09765625 C13.50984375 36.72765625 13.17984375 40.35765625 12.83984375 44.09765625 C6.89984375 44.09765625 0.95984375 44.09765625 -5.16015625 44.09765625 C-5.49015625 40.79765625 -5.82015625 37.49765625 -6.16015625 34.09765625 C-6.4746875 35.02449219 -6.78921875 35.95132813 -7.11328125 36.90625 C-7.54125 38.10378906 -7.96921875 39.30132812 -8.41015625 40.53515625 C-8.8278125 41.73011719 -9.24546875 42.92507812 -9.67578125 44.15625 C-11.16015625 47.09765625 -11.16015625 47.09765625 -13.33203125 48.0078125 C-13.9353125 48.03746094 -14.53859375 48.06710938 -15.16015625 48.09765625 C-18.44020056 40.37990493 -16.27325905 33.59640788 -13.47265625 26.1328125 C-13.21009033 25.41403427 -12.94752441 24.69525604 -12.67700195 23.95469666 C-12.12619711 22.45165623 -11.57137981 20.95008054 -11.01269531 19.44995117 C-10.15449422 17.14494885 -9.308684 14.83568444 -8.46484375 12.52539062 C-7.926487 11.06093828 -7.38744927 9.59673605 -6.84765625 8.1328125 C-6.46637573 7.09544701 -6.46637573 7.09544701 -6.07739258 6.03712463 C-3.86855176 0.11954734 -3.86855176 0.11954734 0 0 Z " fill="#000000" transform="translate(23.16015625,51.90234375)"/>
<path d="M0 0 C0.65134925 1.56020867 1.29582964 3.12328579 1.9375 4.6875 C2.29714844 5.55761719 2.65679687 6.42773438 3.02734375 7.32421875 C6.43956945 16.71126534 6.48315721 29.57382879 3 39 C0.06899903 44.65986395 0.06899903 44.65986395 -3.75 45.875 C-4.4925 45.91625 -5.235 45.9575 -6 46 C-12.99035853 36.61820303 -13.65576096 26.44451242 -12.48046875 15.0234375 C-11.13924329 6.58353095 -9.8006324 -0.65337549 0 0 Z " fill="#000000" transform="translate(31,4)"/>
<path d="M0 0 C0.66 0 1.32 0 2 0 C3.02534398 2.57556643 4.01948244 5.15737023 5 7.75 C5.28617188 8.46027344 5.57234375 9.17054687 5.8671875 9.90234375 C10.22298367 21.62150964 7.70451716 31.68733533 3.625 43.125 C3.2125 44.341875 2.8 45.55875 2.375 46.8125 C-0.68941327 55.68941327 -0.68941327 55.68941327 -3 58 C-3.99 58 -4.98 58 -6 58 C-7.70604902 54.58790195 -7.4035508 50.71297122 -7.62109375 46.9453125 C-7.83085606 44.03695093 -7.83085606 44.03695093 -9.09765625 41.8046875 C-9.39542969 41.20914063 -9.69320313 40.61359375 -10 40 C-9.67 39.01 -9.34 38.02 -9 37 C-8.67 37.66 -8.34 38.32 -8 39 C-6.515 38.505 -6.515 38.505 -5 38 C-3.28172763 34.40286905 -2.60740129 30.56249017 -3.58203125 26.68359375 C-4.15516977 25.17877799 -4.73071541 23.67487695 -5.30859375 22.171875 C-7.72739214 14.57384165 -3.05874245 6.77212351 0 0 Z M-7 41 C-6 43 -6 43 -6 43 Z " fill="#000000" transform="translate(35,104)"/>
<path d="M0 0 C0.66 0 1.32 0 2 0 C9.14219568 17.10671063 9.14219568 17.10671063 6.0625 24.6875 C5.42248047 26.21503906 5.42248047 26.21503906 4.76953125 27.7734375 C3.48117107 33.17539438 5.77738086 37.6334263 7.73828125 42.6015625 C9.58517005 47.57615463 10.01102019 51.47244952 8 56.5 C7.67 56.995 7.34 57.49 7 58 C5.14526367 57.8215332 5.14526367 57.8215332 3 57 C1.7355957 54.78198242 1.7355957 54.78198242 0.67578125 51.85546875 C0.28712891 50.78490234 -0.10152344 49.71433594 -0.50195312 48.61132812 C-0.89318359 47.48146484 -1.28441406 46.35160156 -1.6875 45.1875 C-2.09033203 44.10017578 -2.49316406 43.01285156 -2.90820312 41.89257812 C-6.25168842 32.46697384 -8.69863384 22.92114405 -5.25 13.1875 C-4.87875 12.115 -4.5075 11.0425 -4.125 9.9375 C-2.83675255 6.57374276 -1.51914981 3.26617209 0 0 Z " fill="#000000" transform="translate(18,104)"/>
<path d="M0 0 C2.06390941 3.09586412 2.25513177 3.79748452 2.265625 7.30859375 C2.26820312 8.13810547 2.27078125 8.96761719 2.2734375 9.82226562 C2.26570313 10.68529297 2.25796875 11.54832031 2.25 12.4375 C2.25773437 13.29666016 2.26546875 14.15582031 2.2734375 15.04101562 C2.27085938 15.87181641 2.26828125 16.70261719 2.265625 17.55859375 C2.26336914 18.31454834 2.26111328 19.07050293 2.25878906 19.84936523 C2 22 2 22 0 26 C0 17.42 0 8.84 0 0 Z " fill="#000000" transform="translate(36,14)"/>
<path d="M0 0 C0.33 0 0.66 0 1 0 C1 7.26 1 14.52 1 22 C0.67 22 0.34 22 0 22 C-1.56366008 14.76807212 -1.64364621 7.21378059 0 0 Z " fill="#000000" transform="translate(17,16)"/>
<path d="M0 0 C2.23079726 2.41669703 2.96940652 3.75015327 3.375 7.0625 C3 10 3 10 1.5 11.875 C0.7575 12.431875 0.7575 12.431875 0 13 C0.185625 11.96875 0.37125 10.9375 0.5625 9.875 C0.97307082 6.23851558 0.778309 3.54562991 0 0 Z " fill="#000000" transform="translate(25,115)"/>
<path d="M0 0 C0.33 0 0.66 0 1 0 C1 3.96 1 7.92 1 12 C0.67 12 0.34 12 0 12 C0 8.04 0 4.08 0 0 Z " fill="#000000" transform="translate(44,121)"/>
<path d="M0 0 C0.33 0 0.66 0 1 0 C1 2.31 1 4.62 1 7 C0.34 6.67 -0.32 6.34 -1 6 C-0.67 4.02 -0.34 2.04 0 0 Z " fill="#000000" transform="translate(16,89)"/>
<path d="M0 0 C2 3 2 3 1.625 5.1875 C1.315625 6.0846875 1.315625 6.0846875 1 7 C0.67 7 0.34 7 0 7 C0 4.69 0 2.38 0 0 Z " fill="#000000" transform="translate(37,88)"/>
<path d="M0 0 C0.33 0 0.66 0 1 0 C1.33 2.64 1.66 5.28 2 8 C0 6 0 6 -0.125 2.875 C-0.08375 1.92625 -0.0425 0.9775 0 0 Z " fill="#000000" transform="translate(10,131)"/>
<path d="M0 0 C0.33 0 0.66 0 1 0 C1 2.97 1 5.94 1 9 C0.67 9 0.34 9 0 9 C0 6.03 0 3.06 0 0 Z " fill="#000000" transform="translate(49,87)"/>
<path d="M0 0 C1 3 1 3 0.0625 5.1875 C-0.4634375 6.0846875 -0.4634375 6.0846875 -1 7 C-0.67 4.69 -0.34 2.38 0 0 Z " fill="#000000" transform="translate(11,116)"/>
<path d="M0 0 C0.625 1.875 0.625 1.875 1 4 C0.34 4.66 -0.32 5.32 -1 6 C-0.67 4.02 -0.34 2.04 0 0 Z " fill="#000000" transform="translate(37,151)"/>
<path d="M0 0 C0.33 0.99 0.66 1.98 1 3 C0.34 3.99 -0.32 4.98 -1 6 C-0.67 4.02 -0.34 2.04 0 0 Z " fill="#000000" transform="translate(8,77)"/>
<path d="M0 0 C0.33 0.99 0.66 1.98 1 3 C0.34 3.99 -0.32 4.98 -1 6 C-0.67 4.02 -0.34 2.04 0 0 Z " fill="#000000" transform="translate(19,9)"/>
<path d="M0 0 C0.66 0.66 1.32 1.32 2 2 C1.67 2.99 1.34 3.98 1 5 C0.67 3.35 0.34 1.7 0 0 Z " fill="#000000" transform="translate(16,151)"/>
<path d="M0 0 C0.33 0 0.66 0 1 0 C1 1.98 1 3.96 1 6 C0.67 6 0.34 6 0 6 C0 4.02 0 2.04 0 0 Z " fill="#000000" transform="translate(9,124)"/>
<path d="M0 0 C0.66 0.66 1.32 1.32 2 2 C1.67 2.99 1.34 3.98 1 5 C0.67 3.35 0.34 1.7 0 0 Z " fill="#000000" transform="translate(39,107)"/>
<path d="M0 0 C0.66 0.66 1.32 1.32 2 2 C1.67 2.99 1.34 3.98 1 5 C0.67 3.35 0.34 1.7 0 0 Z " fill="#000000" transform="translate(39,94)"/>
<path d="M0 0 C0.33 0 0.66 0 1 0 C1 1.98 1 3.96 1 6 C0.67 6 0.34 6 0 6 C0 4.02 0 2.04 0 0 Z " fill="#000000" transform="translate(4,89)"/>
<path d="M0 0 C0.33 0.99 0.66 1.98 1 3 C0.34 3.66 -0.32 4.32 -1 5 C-0.67 3.35 -0.34 1.7 0 0 Z " fill="#000000" transform="translate(11,69)"/>
<path d="M0 0 C0.66 0.66 1.32 1.32 2 2 C1.67 2.99 1.34 3.98 1 5 C0.67 3.35 0.34 1.7 0 0 Z " fill="#000000" transform="translate(41,65)"/>
<path d="M0 0 C0.66 0.66 1.32 1.32 2 2 C1.67 2.99 1.34 3.98 1 5 C0.67 3.35 0.34 1.7 0 0 Z " fill="#000000" transform="translate(38,57)"/>
<path d="M0 0 C0.33 0.99 0.66 1.98 1 3 C0.01 3.495 0.01 3.495 -1 4 C-0.67 2.68 -0.34 1.36 0 0 Z " fill="#000000" transform="translate(34,43)"/>
<path d="M0 0 C1 4 1 4 1 4 Z " fill="#000000" transform="translate(43,133)"/>
<path d="M0 0 C1 4 1 4 1 4 Z " fill="#000000" transform="translate(32,104)"/>
<path d="M0 0 C1 4 1 4 1 4 Z " fill="#000000" transform="translate(15,104)"/>
<path d="M0 0 C1 4 1 4 1 4 Z " fill="#000000" transform="translate(5,85)"/>
<path d="M0 0 C1 4 1 4 1 4 Z " fill="#000000" transform="translate(18,38)"/>
<path d="M0 0 C0.33 0.66 0.66 1.32 1 2 C0.34 1.67 -0.32 1.34 -1 1 C-0.67 0.67 -0.34 0.34 0 0 Z " fill="#000000" transform="translate(27,160)"/>
<path d="" fill="#000000" transform="translate(0,0)"/>
<path d="" fill="#000000" transform="translate(0,0)"/>
<path d="" fill="#000000" transform="translate(0,0)"/>
<path d="" fill="#000000" transform="translate(0,0)"/>
<path d="" fill="#000000" transform="translate(0,0)"/>
<path d="" fill="#000000" transform="translate(0,0)"/>
<path d="" fill="#000000" transform="translate(0,0)"/>
<path d="" fill="#000000" transform="translate(0,0)"/>
<path d="" fill="#000000" transform="translate(0,0)"/>
<path d="" fill="#000000" transform="translate(0,0)"/>
<path d="" fill="#000000" transform="translate(0,0)"/>
<path d="" fill="#000000" transform="translate(0,0)"/>
<path d="" fill="#000000" transform="translate(0,0)"/>
<path d="" fill="#000000" transform="translate(0,0)"/>
<path d="" fill="#000000" transform="translate(0,0)"/>
<path d="" fill="#000000" transform="translate(0,0)"/>
<path d="" fill="#000000" transform="translate(0,0)"/>
<path d="" fill="#000000" transform="translate(0,0)"/>
<path d="" fill="#000000" transform="translate(0,0)"/>
<path d="" fill="#000000" transform="translate(0,0)"/>
<path d="" fill="#000000" transform="translate(0,0)"/>
<path d="" fill="#000000" transform="translate(0,0)"/>
<path d="" fill="#000000" transform="translate(0,0)"/>
<path d="" fill="#000000" transform="translate(0,0)"/>
<path d="" fill="#000000" transform="translate(0,0)"/>
<path d="" fill="#000000" transform="translate(0,0)"/>
<path d="" fill="#000000" transform="translate(0,0)"/>
<path d="" fill="#000000" transform="translate(0,0)"/>
<path d="" fill="#000000" transform="translate(0,0)"/>
<path d="" fill="#000000" transform="translate(0,0)"/>
<path d="" fill="#000000" transform="translate(0,0)"/>
<path d="" fill="#000000" transform="translate(0,0)"/>
<path d="" fill="#000000" transform="translate(0,0)"/>
<path d="" fill="#000000" transform="translate(0,0)"/>
<path d="" fill="#000000" transform="translate(0,0)"/>
<path d="" fill="#000000" transform="translate(0,0)"/>
<path d="" fill="#000000" transform="translate(0,0)"/>
<path d="" fill="#000000" transform="translate(0,0)"/>
<path d="" fill="#000000" transform="translate(0,0)"/>
<path d="" fill="#000000" transform="translate(0,0)"/>
<path d="" fill="#000000" transform="translate(0,0)"/>
<path d="" fill="#000000" transform="translate(0,0)"/>
<path d="" fill="#000000" transform="translate(0,0)"/>
<path d="" fill="#000000" transform="translate(0,0)"/>
<path d="" fill="#000000" transform="translate(0,0)"/>
<path d="" fill="#000000" transform="translate(0,0)"/>
<path d="" fill="#000000" transform="translate(0,0)"/>
<path d="" fill="#000000" transform="translate(0,0)"/>
<path d="" fill="#000000" transform="translate(0,0)"/>
<path d="" fill="#000000" transform="translate(0,0)"/>
<path d="" fill="#000000" transform="translate(0,0)"/>
<path d="" fill="#000000" transform="translate(0,0)"/>
<path d="" fill="#000000" transform="translate(0,0)"/>
<path d="" fill="#000000" transform="translate(0,0)"/>
<path d="" fill="#000000" transform="translate(0,0)"/>
<path d="" fill="#000000" transform="translate(0,0)"/>
<path d="" fill="#000000" transform="translate(0,0)"/>
<path d="" fill="#000000" transform="translate(0,0)"/>
<path d="" fill="#000000" transform="translate(0,0)"/>
<path d="" fill="#000000" transform="translate(0,0)"/>
<path d="" fill="#000000" transform="translate(0,0)"/>
<path d="" fill="#000000" transform="translate(0,0)"/>
<path d="" fill="#000000" transform="translate(0,0)"/>
<path d="" fill="#000000" transform="translate(0,0)"/>
<path d="" fill="#000000" transform="translate(0,0)"/>
<path d="" fill="#000000" transform="translate(0,0)"/>
<path d="" fill="#000000" transform="translate(0,0)"/>
<path d="" fill="#000000" transform="translate(0,0)"/>
<path d="" fill="#000000" transform="translate(0,0)"/>
<path d="" fill="#000000" transform="translate(0,0)"/>
<path d="" fill="#000000" transform="translate(0,0)"/>
<path d="" fill="#000000" transform="translate(0,0)"/>
<path d="" fill="#000000" transform="translate(0,0)"/>
<path d="" fill="#000000" transform="translate(0,0)"/>
<path d="" fill="#000000" transform="translate(0,0)"/>
<path d="" fill="#000000" transform="translate(0,0)"/>
<path d="" fill="#000000" transform="translate(0,0)"/>
<path d="" fill="#000000" transform="translate(0,0)"/>
<path d="" fill="#000000" transform="translate(0,0)"/>
<path d="" fill="#000000" transform="translate(0,0)"/>
<path d="" fill="#000000" transform="translate(0,0)"/>
<path d="" fill="#000000" transform="translate(0,0)"/>
</svg>
