<svg width="50" height="117" xmlns="http://www.w3.org/2000/svg" xmlns:xlink="http://www.w3.org/1999/xlink" xml:space="preserve" overflow="hidden"><g><g><path d="M4.22945 72.2321C4.30739 72.2321 4.38533 72.2297 4.46426 72.2247 6.64015 72.097 8.30006 70.2304 8.17378 68.0545 7.97992 64.7727 7.89261 61.7848 7.89261 59.0653 7.87633 47.1203 9.61813 40.4097 11.3279 36.9073L11.3279 110.901C11.3279 114.27 14.0592 117 17.4264 117 20.7946 117 23.5259 114.27 23.5259 110.901L23.5259 66.3714 25.8123 66.3714 25.8123 110.901C25.8123 114.27 28.5436 117 31.9108 117 35.279 117 38.0103 114.27 38.0103 110.901L38.0103 36.9275C38.3028 37.5279 38.5978 38.216 38.8893 39.0191 40.2794 42.8721 41.4485 49.1956 41.4441 59.0653 41.4441 61.7858 41.3568 64.7736 41.1659 68.0555 41.0381 70.2299 42.6995 72.0975 44.8754 72.2243 44.9538 72.2292 45.0323 72.2312 45.1102 72.2317 47.1845 72.2317 48.9228 70.6127 49.0456 68.5152 49.2439 65.0938 49.3372 61.954 49.3372 59.0653 49.317 44.1759 46.9393 35.9355 43.6964 30.9819 42.076 28.5219 40.1808 26.9449 38.4286 26.0713 36.7741 25.2366 35.3174 25.0378 34.4231 25.0205 34.3481 25.0156 34.2741 25.0092 34.1982 25.0092L15.1405 25.0092C15.0645 25.0092 14.9905 25.0161 14.916 25.0205 14.0217 25.0373 12.565 25.2361 10.9081 26.0713 8.25567 27.3873 5.3941 30.2652 3.39283 35.3648 1.36739 40.4846 0.00739932 47.8869 0 59.0653 0.000986576 61.954 0.0932314 65.0953 0.294 68.5162 0.416828 70.6127 2.15567 72.2317 4.22945 72.2321Z" fill="#000000" fill-rule="nonzero" fill-opacity="1" transform="matrix(1.01282 0 0 1 0.0148977 2.30411e-15)"/><path d="M35.7688 11.099C35.7688 17.2288 30.7996 22.198 24.6698 22.198 18.54 22.198 13.5708 17.2288 13.5708 11.099 13.5708 4.96918 18.54-1.75251e-15 24.6698-1.75251e-15 30.7996-3.50502e-15 35.7688 4.96918 35.7688 11.099Z" fill="#000000" fill-rule="nonzero" fill-opacity="1" transform="matrix(1.01282 0 0 1 0.0148977 2.30411e-15)"/></g></g></svg>